<svg xmlns="http://www.w3.org/2000/svg" viewBox="0 0 24 24" fill="none">
  <!-- Outer spiral ring -->
  <circle cx="12" cy="12" r="10" stroke="#6366f1" stroke-width="1" fill="none" opacity="0.3" />
  
  <!-- Dynamic spiral -->
  <path d="M12 4C16.4 4 20 7.6 20 12C20 13.8 19.4 15.4 18.4 16.7L16.8 15.1C17.5 14.2 17.9 13.1 17.9 12C17.9 8.7 15.3 6.1 12 6.1C8.7 6.1 6.1 8.7 6.1 12C6.1 15.3 8.7 17.9 12 17.9C13.4 17.9 14.7 17.4 15.7 16.5L17.3 18.1C15.8 19.3 14 20 12 20C7.6 20 4 16.4 4 12C4 7.6 7.6 4 12 4Z" fill="#6366f1" opacity="0.9" />
  
  <!-- Inner vortex spiral -->
  <path d="M12 7C14.8 7 17 9.2 17 12C17 13.2 16.5 14.3 15.7 15.1L14.3 13.7C14.7 13.2 15 12.6 15 12C15 10.3 13.7 9 12 9C10.3 9 9 10.3 9 12C9 13.7 10.3 15 12 15C12.8 15 13.5 14.6 14 14L15.4 15.4C14.6 16.4 13.4 17 12 17C9.2 17 7 14.8 7 12C7 9.2 9.2 7 12 7Z" fill="#6366f1" opacity="0.7" />
  
  <!-- Center core -->
  <circle cx="12" cy="12" r="2.5" fill="#6366f1" opacity="0.95" />
  
  <!-- Inner glow -->
  <circle cx="12" cy="12" r="1.5" fill="#6366f1" opacity="0.6" />
</svg>
